<mxfile host="Electron" modified="2024-09-13T04:41:19.508Z" agent="Mozilla/5.0 (Windows NT 10.0; Win64; x64) AppleWebKit/537.36 (KHTML, like Gecko) draw.io/24.5.3 Chrome/124.0.6367.207 Electron/30.0.6 Safari/537.36" etag="VN2F6VMQih8Z74v5ruw2" version="24.5.3" type="device">
  <diagram id="C5RBs43oDa-KdzZeNtuy" name="Page-1">
    <mxGraphModel dx="402" dy="135" grid="1" gridSize="10" guides="0" tooltips="1" connect="1" arrows="1" fold="1" page="1" pageScale="1" pageWidth="1169" pageHeight="827" math="0" shadow="0">
      <root>
        <mxCell id="WIyWlLk6GJQsqaUBKTNV-0" />
        <mxCell id="WIyWlLk6GJQsqaUBKTNV-1" parent="WIyWlLk6GJQsqaUBKTNV-0" />
        <mxCell id="ZS6XSb4tDrU91-AkH117-0" value="ClassD manajemen magang&amp;nbsp;" style="shape=umlFrame;whiteSpace=wrap;html=1;pointerEvents=0;width=300;height=30;" parent="WIyWlLk6GJQsqaUBKTNV-1" vertex="1">
          <mxGeometry x="54" y="20" width="736" height="660" as="geometry" />
        </mxCell>
        <mxCell id="ZS6XSb4tDrU91-AkH117-1" value="Siswa/ Mahasiswa" style="swimlane;fontStyle=1;align=center;verticalAlign=top;childLayout=stackLayout;horizontal=1;startSize=26;horizontalStack=0;resizeParent=1;resizeParentMax=0;resizeLast=0;collapsible=1;marginBottom=0;whiteSpace=wrap;html=1;" parent="WIyWlLk6GJQsqaUBKTNV-1" vertex="1">
          <mxGeometry x="360" y="80" width="160" height="150" as="geometry" />
        </mxCell>
        <mxCell id="ZS6XSb4tDrU91-AkH117-2" value="+ NIS/NIM: Int,&lt;div&gt;+ Nama: char,&lt;/div&gt;&lt;div&gt;+ Sekolah/ Univ: varchar,&lt;/div&gt;&lt;div&gt;+ Jurusan: char,&lt;/div&gt;&lt;div&gt;+ Email: Varchar,&lt;/div&gt;&lt;div&gt;+ NoTel: Int&amp;nbsp;&lt;/div&gt;" style="text;strokeColor=none;fillColor=none;align=left;verticalAlign=top;spacingLeft=4;spacingRight=4;overflow=hidden;rotatable=0;points=[[0,0.5],[1,0.5]];portConstraint=eastwest;whiteSpace=wrap;html=1;" parent="ZS6XSb4tDrU91-AkH117-1" vertex="1">
          <mxGeometry y="26" width="160" height="74" as="geometry" />
        </mxCell>
        <mxCell id="ZS6XSb4tDrU91-AkH117-3" value="" style="line;strokeWidth=1;fillColor=none;align=left;verticalAlign=middle;spacingTop=-1;spacingLeft=3;spacingRight=3;rotatable=0;labelPosition=right;points=[];portConstraint=eastwest;strokeColor=inherit;" parent="ZS6XSb4tDrU91-AkH117-1" vertex="1">
          <mxGeometry y="100" width="160" height="8" as="geometry" />
        </mxCell>
        <mxCell id="ZS6XSb4tDrU91-AkH117-4" value="+ applyMagang()&lt;div&gt;+ cancelMagang()&lt;/div&gt;" style="text;strokeColor=none;fillColor=none;align=left;verticalAlign=top;spacingLeft=4;spacingRight=4;overflow=hidden;rotatable=0;points=[[0,0.5],[1,0.5]];portConstraint=eastwest;whiteSpace=wrap;html=1;" parent="ZS6XSb4tDrU91-AkH117-1" vertex="1">
          <mxGeometry y="108" width="160" height="42" as="geometry" />
        </mxCell>
        <mxCell id="PLc3peeYU2eGHcnz-muS-8" value="" style="edgeStyle=orthogonalEdgeStyle;rounded=0;orthogonalLoop=1;jettySize=auto;html=1;entryX=0.501;entryY=1.003;entryDx=0;entryDy=0;entryPerimeter=0;" parent="WIyWlLk6GJQsqaUBKTNV-1" source="ZS6XSb4tDrU91-AkH117-5" target="ZS6XSb4tDrU91-AkH117-10" edge="1">
          <mxGeometry relative="1" as="geometry" />
        </mxCell>
        <mxCell id="ZS6XSb4tDrU91-AkH117-5" value="Pembimbing magang (karyawan)" style="swimlane;fontStyle=1;align=center;verticalAlign=top;childLayout=stackLayout;horizontal=1;startSize=40;horizontalStack=0;resizeParent=1;resizeParentMax=0;resizeLast=0;collapsible=1;marginBottom=0;whiteSpace=wrap;html=1;" parent="WIyWlLk6GJQsqaUBKTNV-1" vertex="1">
          <mxGeometry x="360" y="490" width="160" height="154" as="geometry" />
        </mxCell>
        <mxCell id="ZS6XSb4tDrU91-AkH117-6" value="+ idPembimbing: Int,&lt;div&gt;+ nama: char,&lt;/div&gt;&lt;div&gt;+ jabatan: char,&lt;/div&gt;&lt;div&gt;+ departement: char&lt;/div&gt;&lt;div&gt;&lt;div&gt;&lt;br&gt;&lt;/div&gt;&lt;/div&gt;" style="text;strokeColor=none;fillColor=none;align=left;verticalAlign=top;spacingLeft=4;spacingRight=4;overflow=hidden;rotatable=0;points=[[0,0.5],[1,0.5]];portConstraint=eastwest;whiteSpace=wrap;html=1;" parent="ZS6XSb4tDrU91-AkH117-5" vertex="1">
          <mxGeometry y="40" width="160" height="80" as="geometry" />
        </mxCell>
        <mxCell id="ZS6XSb4tDrU91-AkH117-7" value="" style="line;strokeWidth=1;fillColor=none;align=left;verticalAlign=middle;spacingTop=-1;spacingLeft=3;spacingRight=3;rotatable=0;labelPosition=right;points=[];portConstraint=eastwest;strokeColor=inherit;" parent="ZS6XSb4tDrU91-AkH117-5" vertex="1">
          <mxGeometry y="120" width="160" height="8" as="geometry" />
        </mxCell>
        <mxCell id="ZS6XSb4tDrU91-AkH117-8" value="+ evaluasiMagang()" style="text;strokeColor=none;fillColor=none;align=left;verticalAlign=top;spacingLeft=4;spacingRight=4;overflow=hidden;rotatable=0;points=[[0,0.5],[1,0.5]];portConstraint=eastwest;whiteSpace=wrap;html=1;" parent="ZS6XSb4tDrU91-AkH117-5" vertex="1">
          <mxGeometry y="128" width="160" height="26" as="geometry" />
        </mxCell>
        <mxCell id="ZS6XSb4tDrU91-AkH117-9" value="Acara Magang" style="swimlane;fontStyle=1;align=center;verticalAlign=top;childLayout=stackLayout;horizontal=1;startSize=26;horizontalStack=0;resizeParent=1;resizeParentMax=0;resizeLast=0;collapsible=1;marginBottom=0;whiteSpace=wrap;html=1;" parent="WIyWlLk6GJQsqaUBKTNV-1" vertex="1">
          <mxGeometry x="360" y="300" width="160" height="130" as="geometry" />
        </mxCell>
        <mxCell id="ZS6XSb4tDrU91-AkH117-10" value="+ idMagang: Int,&lt;div&gt;+ deskripsi: Char,&lt;/div&gt;&lt;div&gt;+ tanggalMulai: date,&amp;nbsp;&lt;/div&gt;&lt;div&gt;+ tanggalSelesai: date,&lt;/div&gt;&lt;div&gt;+ status: char,&lt;/div&gt;&lt;div&gt;+ idPembimbing: Int&lt;/div&gt;" style="text;strokeColor=none;fillColor=none;align=left;verticalAlign=top;spacingLeft=4;spacingRight=4;overflow=hidden;rotatable=0;points=[[0,0.5],[1,0.5]];portConstraint=eastwest;whiteSpace=wrap;html=1;" parent="ZS6XSb4tDrU91-AkH117-9" vertex="1">
          <mxGeometry y="26" width="160" height="104" as="geometry" />
        </mxCell>
        <mxCell id="PLc3peeYU2eGHcnz-muS-4" value="" style="edgeStyle=orthogonalEdgeStyle;rounded=0;orthogonalLoop=1;jettySize=auto;html=1;exitX=0.998;exitY=0.03;exitDx=0;exitDy=0;exitPerimeter=0;" parent="WIyWlLk6GJQsqaUBKTNV-1" source="ZS6XSb4tDrU91-AkH117-16" target="ZS6XSb4tDrU91-AkH117-10" edge="1">
          <mxGeometry relative="1" as="geometry" />
        </mxCell>
        <mxCell id="z0wIMpjTKug45rJ7t6Iy-0" value="" style="edgeStyle=orthogonalEdgeStyle;rounded=0;orthogonalLoop=1;jettySize=auto;html=1;entryX=0.497;entryY=-0.034;entryDx=0;entryDy=0;entryPerimeter=0;" edge="1" parent="WIyWlLk6GJQsqaUBKTNV-1" source="ZS6XSb4tDrU91-AkH117-13" target="rwTYOmjc_J8FM25p9r6h-0">
          <mxGeometry relative="1" as="geometry" />
        </mxCell>
        <mxCell id="ZS6XSb4tDrU91-AkH117-13" value="HRD" style="swimlane;fontStyle=1;align=center;verticalAlign=top;childLayout=stackLayout;horizontal=1;startSize=26;horizontalStack=0;resizeParent=1;resizeParentMax=0;resizeLast=0;collapsible=1;marginBottom=0;whiteSpace=wrap;html=1;" parent="WIyWlLk6GJQsqaUBKTNV-1" vertex="1">
          <mxGeometry x="120" y="260" width="160" height="168" as="geometry" />
        </mxCell>
        <mxCell id="ZS6XSb4tDrU91-AkH117-14" value="&lt;div&gt;+ NIP: Int,&amp;nbsp;&lt;/div&gt;+ Nama: Char,&lt;div&gt;+ Jabatan: Char,&lt;br&gt;&lt;div&gt;+ Email: Varchar,&lt;/div&gt;&lt;div&gt;+ No. Telepon: Int&lt;/div&gt;&lt;div&gt;&lt;br&gt;&lt;/div&gt;&lt;div&gt;&lt;br&gt;&lt;/div&gt;&lt;/div&gt;" style="text;strokeColor=none;fillColor=none;align=left;verticalAlign=top;spacingLeft=4;spacingRight=4;overflow=hidden;rotatable=0;points=[[0,0.5],[1,0.5]];portConstraint=eastwest;whiteSpace=wrap;html=1;" parent="ZS6XSb4tDrU91-AkH117-13" vertex="1">
          <mxGeometry y="26" width="160" height="80" as="geometry" />
        </mxCell>
        <mxCell id="ZS6XSb4tDrU91-AkH117-15" value="" style="line;strokeWidth=1;fillColor=none;align=left;verticalAlign=middle;spacingTop=-1;spacingLeft=3;spacingRight=3;rotatable=0;labelPosition=right;points=[];portConstraint=eastwest;strokeColor=inherit;" parent="ZS6XSb4tDrU91-AkH117-13" vertex="1">
          <mxGeometry y="106" width="160" height="10" as="geometry" />
        </mxCell>
        <mxCell id="ZS6XSb4tDrU91-AkH117-16" value="+ tambahMagang(),&lt;div&gt;+ hapusMagang(),&lt;/div&gt;&lt;div&gt;+ editMagang()&lt;/div&gt;" style="text;strokeColor=none;fillColor=none;align=left;verticalAlign=top;spacingLeft=4;spacingRight=4;overflow=hidden;rotatable=0;points=[[0,0.5],[1,0.5]];portConstraint=eastwest;whiteSpace=wrap;html=1;" parent="ZS6XSb4tDrU91-AkH117-13" vertex="1">
          <mxGeometry y="116" width="160" height="52" as="geometry" />
        </mxCell>
        <mxCell id="ZS6XSb4tDrU91-AkH117-17" value="Lamaran" style="swimlane;fontStyle=1;align=center;verticalAlign=top;childLayout=stackLayout;horizontal=1;startSize=26;horizontalStack=0;resizeParent=1;resizeParentMax=0;resizeLast=0;collapsible=1;marginBottom=0;whiteSpace=wrap;html=1;" parent="WIyWlLk6GJQsqaUBKTNV-1" vertex="1">
          <mxGeometry x="600" y="86" width="160" height="114" as="geometry" />
        </mxCell>
        <mxCell id="ZS6XSb4tDrU91-AkH117-18" value="+ idLamaran: Int,&lt;div&gt;+ tanggalLamar: date time,&lt;/div&gt;&lt;div&gt;+ status: char&lt;br&gt;&lt;div&gt;&lt;br&gt;&lt;/div&gt;&lt;/div&gt;" style="text;strokeColor=none;fillColor=none;align=left;verticalAlign=top;spacingLeft=4;spacingRight=4;overflow=hidden;rotatable=0;points=[[0,0.5],[1,0.5]];portConstraint=eastwest;whiteSpace=wrap;html=1;" parent="ZS6XSb4tDrU91-AkH117-17" vertex="1">
          <mxGeometry y="26" width="160" height="54" as="geometry" />
        </mxCell>
        <mxCell id="ZS6XSb4tDrU91-AkH117-19" value="" style="line;strokeWidth=1;fillColor=none;align=left;verticalAlign=middle;spacingTop=-1;spacingLeft=3;spacingRight=3;rotatable=0;labelPosition=right;points=[];portConstraint=eastwest;strokeColor=inherit;" parent="ZS6XSb4tDrU91-AkH117-17" vertex="1">
          <mxGeometry y="80" width="160" height="8" as="geometry" />
        </mxCell>
        <mxCell id="ZS6XSb4tDrU91-AkH117-20" value="+ ubahStatus()" style="text;strokeColor=none;fillColor=none;align=left;verticalAlign=top;spacingLeft=4;spacingRight=4;overflow=hidden;rotatable=0;points=[[0,0.5],[1,0.5]];portConstraint=eastwest;whiteSpace=wrap;html=1;" parent="ZS6XSb4tDrU91-AkH117-17" vertex="1">
          <mxGeometry y="88" width="160" height="26" as="geometry" />
        </mxCell>
        <mxCell id="ZS6XSb4tDrU91-AkH117-26" value="" style="endArrow=none;html=1;rounded=0;entryX=0.998;entryY=0.542;entryDx=0;entryDy=0;entryPerimeter=0;" parent="WIyWlLk6GJQsqaUBKTNV-1" target="ZS6XSb4tDrU91-AkH117-2" edge="1">
          <mxGeometry width="50" height="50" relative="1" as="geometry">
            <mxPoint x="600" y="146" as="sourcePoint" />
            <mxPoint x="526" y="138" as="targetPoint" />
          </mxGeometry>
        </mxCell>
        <mxCell id="ZS6XSb4tDrU91-AkH117-37" value="1" style="text;html=1;align=center;verticalAlign=middle;resizable=0;points=[];autosize=1;strokeColor=none;fillColor=none;" parent="WIyWlLk6GJQsqaUBKTNV-1" vertex="1">
          <mxGeometry x="520" y="122" width="30" height="30" as="geometry" />
        </mxCell>
        <mxCell id="BZ8HnphNoS7A94brp6Mc-0" value="1" style="text;html=1;align=center;verticalAlign=middle;resizable=0;points=[];autosize=1;strokeColor=none;fillColor=none;" parent="WIyWlLk6GJQsqaUBKTNV-1" vertex="1">
          <mxGeometry x="570" y="122" width="30" height="30" as="geometry" />
        </mxCell>
        <mxCell id="rwTYOmjc_J8FM25p9r6h-0" value="karyawan" style="swimlane;fontStyle=1;align=center;verticalAlign=top;childLayout=stackLayout;horizontal=1;startSize=26;horizontalStack=0;resizeParent=1;resizeParentMax=0;resizeLast=0;collapsible=1;marginBottom=0;whiteSpace=wrap;html=1;" parent="WIyWlLk6GJQsqaUBKTNV-1" vertex="1">
          <mxGeometry x="120" y="490" width="160" height="110" as="geometry" />
        </mxCell>
        <mxCell id="rwTYOmjc_J8FM25p9r6h-1" value="+ idKaryawan: Int,&lt;div&gt;+ nama: char,&lt;/div&gt;&lt;div&gt;+ jabatan: char,&lt;/div&gt;&lt;div&gt;+ group: char,&lt;/div&gt;&lt;div&gt;+ departement: char&lt;/div&gt;" style="text;strokeColor=none;fillColor=none;align=left;verticalAlign=top;spacingLeft=4;spacingRight=4;overflow=hidden;rotatable=0;points=[[0,0.5],[1,0.5]];portConstraint=eastwest;whiteSpace=wrap;html=1;" parent="rwTYOmjc_J8FM25p9r6h-0" vertex="1">
          <mxGeometry y="26" width="160" height="84" as="geometry" />
        </mxCell>
        <mxCell id="PLc3peeYU2eGHcnz-muS-3" style="edgeStyle=orthogonalEdgeStyle;rounded=0;orthogonalLoop=1;jettySize=auto;html=1;entryX=0.499;entryY=0.999;entryDx=0;entryDy=0;entryPerimeter=0;" parent="WIyWlLk6GJQsqaUBKTNV-1" source="ZS6XSb4tDrU91-AkH117-9" target="ZS6XSb4tDrU91-AkH117-4" edge="1">
          <mxGeometry relative="1" as="geometry" />
        </mxCell>
        <mxCell id="PLc3peeYU2eGHcnz-muS-9" value="1" style="text;html=1;align=center;verticalAlign=middle;resizable=0;points=[];autosize=1;strokeColor=none;fillColor=none;" parent="WIyWlLk6GJQsqaUBKTNV-1" vertex="1">
          <mxGeometry x="530" y="360" width="30" height="30" as="geometry" />
        </mxCell>
        <mxCell id="PLc3peeYU2eGHcnz-muS-10" value="M" style="text;html=1;align=center;verticalAlign=middle;resizable=0;points=[];autosize=1;strokeColor=none;fillColor=none;" parent="WIyWlLk6GJQsqaUBKTNV-1" vertex="1">
          <mxGeometry x="680" y="200" width="30" height="30" as="geometry" />
        </mxCell>
        <mxCell id="PLc3peeYU2eGHcnz-muS-11" value="1" style="text;html=1;align=center;verticalAlign=middle;resizable=0;points=[];autosize=1;strokeColor=none;fillColor=none;" parent="WIyWlLk6GJQsqaUBKTNV-1" vertex="1">
          <mxGeometry x="435" y="278" width="30" height="30" as="geometry" />
        </mxCell>
        <mxCell id="PLc3peeYU2eGHcnz-muS-12" value="1" style="text;html=1;align=center;verticalAlign=middle;resizable=0;points=[];autosize=1;strokeColor=none;fillColor=none;" parent="WIyWlLk6GJQsqaUBKTNV-1" vertex="1">
          <mxGeometry x="435" y="230" width="30" height="30" as="geometry" />
        </mxCell>
        <mxCell id="PLc3peeYU2eGHcnz-muS-13" value="1" style="text;html=1;align=center;verticalAlign=middle;resizable=0;points=[];autosize=1;strokeColor=none;fillColor=none;" parent="WIyWlLk6GJQsqaUBKTNV-1" vertex="1">
          <mxGeometry x="275" y="358" width="30" height="30" as="geometry" />
        </mxCell>
        <mxCell id="PLc3peeYU2eGHcnz-muS-14" value="1" style="text;html=1;align=center;verticalAlign=middle;resizable=0;points=[];autosize=1;strokeColor=none;fillColor=none;" parent="WIyWlLk6GJQsqaUBKTNV-1" vertex="1">
          <mxGeometry x="330" y="370" width="30" height="30" as="geometry" />
        </mxCell>
        <mxCell id="PLc3peeYU2eGHcnz-muS-16" value="1" style="text;html=1;align=center;verticalAlign=middle;resizable=0;points=[];autosize=1;strokeColor=none;fillColor=none;" parent="WIyWlLk6GJQsqaUBKTNV-1" vertex="1">
          <mxGeometry x="165" y="468" width="30" height="30" as="geometry" />
        </mxCell>
        <mxCell id="PLc3peeYU2eGHcnz-muS-17" value="1" style="text;html=1;align=center;verticalAlign=middle;resizable=0;points=[];autosize=1;strokeColor=none;fillColor=none;" parent="WIyWlLk6GJQsqaUBKTNV-1" vertex="1">
          <mxGeometry x="275" y="538" width="30" height="30" as="geometry" />
        </mxCell>
        <mxCell id="PLc3peeYU2eGHcnz-muS-18" value="1" style="text;html=1;align=center;verticalAlign=middle;resizable=0;points=[];autosize=1;strokeColor=none;fillColor=none;" parent="WIyWlLk6GJQsqaUBKTNV-1" vertex="1">
          <mxGeometry x="330" y="570" width="30" height="30" as="geometry" />
        </mxCell>
        <mxCell id="PLc3peeYU2eGHcnz-muS-19" value="1" style="text;html=1;align=center;verticalAlign=middle;resizable=0;points=[];autosize=1;strokeColor=none;fillColor=none;" parent="WIyWlLk6GJQsqaUBKTNV-1" vertex="1">
          <mxGeometry x="435" y="430" width="30" height="30" as="geometry" />
        </mxCell>
        <mxCell id="PLc3peeYU2eGHcnz-muS-20" value="1" style="text;html=1;align=center;verticalAlign=middle;resizable=0;points=[];autosize=1;strokeColor=none;fillColor=none;" parent="WIyWlLk6GJQsqaUBKTNV-1" vertex="1">
          <mxGeometry x="415" y="468" width="30" height="30" as="geometry" />
        </mxCell>
        <mxCell id="PLc3peeYU2eGHcnz-muS-21" style="edgeStyle=orthogonalEdgeStyle;rounded=0;orthogonalLoop=1;jettySize=auto;html=1;entryX=1.013;entryY=0.609;entryDx=0;entryDy=0;entryPerimeter=0;" parent="WIyWlLk6GJQsqaUBKTNV-1" source="ZS6XSb4tDrU91-AkH117-17" target="ZS6XSb4tDrU91-AkH117-10" edge="1">
          <mxGeometry relative="1" as="geometry" />
        </mxCell>
        <mxCell id="7fmG50fWMXk5Xn4-MiM6-1" value="1" style="text;html=1;align=center;verticalAlign=middle;resizable=0;points=[];autosize=1;strokeColor=none;fillColor=none;" parent="WIyWlLk6GJQsqaUBKTNV-1" vertex="1">
          <mxGeometry x="210" y="430" width="30" height="30" as="geometry" />
        </mxCell>
        <mxCell id="z0wIMpjTKug45rJ7t6Iy-1" value="" style="edgeStyle=orthogonalEdgeStyle;rounded=0;orthogonalLoop=1;jettySize=auto;html=1;" edge="1" parent="WIyWlLk6GJQsqaUBKTNV-1" source="ZS6XSb4tDrU91-AkH117-6">
          <mxGeometry relative="1" as="geometry">
            <mxPoint x="280" y="570" as="targetPoint" />
          </mxGeometry>
        </mxCell>
      </root>
    </mxGraphModel>
  </diagram>
</mxfile>
